# xmcd CD database file
#
# Track frame offsets:
#	150
#	26366
#	44959
#
# Disc length: 899 seconds
#
# Revision: 0
# Processed by: cddbd v1.5.1PL2 Copyright (c) Steve Scherf et al.
# Submitted via: CDex 1.51
#
DISCID=22038103
DTITLE=東野純直 - AZ SUMMER REMIX
DYEAR=03
DGENRE=JPop
TTITLE0=AZ summer remix(phase 1)
TTITLE1=AZ summer remix(phase 2)
TTITLE2=Base(Unreleased)
EXTD=YEAR: 03
EXTT0=
EXTT1=
EXTT2=
PLAYORDER=
